[Header]
FileType HTR
DataType HTRS
FileVersion 1
NumSegments 48
NumFrames 3
DataFrameRate 30
EulerRotationOrder ZYX
CalibrationUnits mm
RotationUnits Degrees
GlobalAxisofGravity Y
BoneLengthAxis Y
ScaleFactor 1.0
[SegmentNames&Hierarchy]
Wolf	GLOBAL
Becken	Wolf
Bauch	Becken
Bauch_001	Bauch
Brust	Bauch_001
Hals	Brust
Kopf_002	Hals
Kopf	Kopf_002
Unterkiefer	Kopf
Hals_fett	Unterkiefer
Maulunten	Unterkiefer
Mauloben	Kopf
MundW_L	Kopf
MundW_R	Kopf
Augen_con	Kopf
IK_Aug_R	Augen_con
IK_Aug_L	Augen_con
Aug_R	Kopf
aug_L	Kopf
Ohr_L	Kopf
Ohr_R	Kopf
Braun_O_L	Kopf
Braun_O_R	Kopf
aug_lied_O_L	Kopf
aug_lied_O_R	Kopf
aug_lied_U_L	Kopf
aug_lied_U_R	Kopf
Bauch_003	Brust
Schalterplatte_L	Bauch_003
Oberarm_L	Schalterplatte_L
Unterarm_L	Oberarm_L
Vorderpfote_L	Unterarm_L
Schalterplatte_R	Bauch_003
Oberarm_R	Schalterplatte_R
Unterarm_R	Oberarm_R
Vorderpfote_R	Unterarm_R
Schwanz	Becken
Schwanz_001	Schwanz
Schwanz_002	Schwanz_001
Schwanz_003	Schwanz_002
Oberschenkel_L	Becken
Unterschenkel_L	Oberschenkel_L
Pfote1_L	Unterschenkel_L
Pfote2_L	Pfote1_L
Oberschenkel_R	Becken
Unterschenkel_R	Oberschenkel_R
Pfote1_R	Unterschenkel_R
Pfote2_R	Pfote1_R
[BasePosition]
Wolf	0	0	0	0	0	0	1
Becken	0	0	0	0	0	0	1
Bauch	0	0	0	0	0	0	1
Bauch_001	0	0	0	0	0	0	1
Brust	0	0	0	0	0	0	1
Hals	0	0	0	0	0	0	1
Kopf_002	0	0	0	0	0	0	1
Kopf	0	0	0	0	0	0	1
Unterkiefer	0	0	0	0	0	0	1
Hals_fett	0	0	0	0	0	0	1
Maulunten	0	0	0	0	0	0	1
Mauloben	0	0	0	0	0	0	1
MundW_L	0	0	0	0	0	0	1
MundW_R	0	0	0	0	0	0	1
Augen_con	0	0	0	0	0	0	1
IK_Aug_R	0	0	0	0	0	0	1
IK_Aug_L	0	0	0	0	0	0	1
Aug_R	0	0	0	0	0	0	1
aug_L	0	0	0	0	0	0	1
Ohr_L	0	0	0	0	0	0	1
Ohr_R	0	0	0	0	0	0	1
Braun_O_L	0	0	0	0	0	0	1
Braun_O_R	0	0	0	0	0	0	1
aug_lied_O_L	0	0	0	0	0	0	1
aug_lied_O_R	0	0	0	0	0	0	1
aug_lied_U_L	0	0	0	0	0	0	1
aug_lied_U_R	0	0	0	0	0	0	1
Bauch_003	0	0	0	0	0	0	1
Schalterplatte_L	0	0	0	0	0	0	1
Oberarm_L	0	0	0	0	0	0	1
Unterarm_L	0	0	0	0	0	0	1
Vorderpfote_L	0	0	0	0	0	0	1
Schalterplatte_R	0	0	0	0	0	0	1
Oberarm_R	0	0	0	0	0	0	1
Unterarm_R	0	0	0	0	0	0	1
Vorderpfote_R	0	0	0	0	0	0	1
Schwanz	0	0	0	0	0	0	1
Schwanz_001	0	0	0	0	0	0	1
Schwanz_002	0	0	0	0	0	0	1
Schwanz_003	0	0	0	0	0	0	1
Oberschenkel_L	0	0	0	0	0	0	1
Unterschenkel_L	0	0	0	0	0	0	1
Pfote1_L	0	0	0	0	0	0	1
Pfote2_L	0	0	0	0	0	0	1
Oberschenkel_R	0	0	0	0	0	0	1
Unterschenkel_R	0	0	0	0	0	0	1
Pfote1_R	0	0	0	0	0	0	1
Pfote2_R	0	0	0	0	0	0	1
[Wolf]
28	0	0	0	-90	-0	0	1.0
29	0	0	0	-90	-0	0	1.0
30	0	0	0	-90	-0	0	1.0
[Becken]
28	0	0.3869720697	-0.3509118557	-2.067962885	164.4212189	89.26520538	1.0
29	0	0.3799040318	-0.3386918306	-2.067962885	164.4212189	89.26520538	1.0
30	0	0.3705266416	-0.3224852681	-2.067962885	164.4212189	89.26520538	1.0
[Bauch]
28	0.9984878302	-0.00741992658	-0.150611341	-6.458931239e-07	12.60522842	-8.201818247e-08	1.0
29	0.9984878302	-0.00741992658	-0.150611341	-6.458931239e-07	12.60522842	-8.201818247e-08	1.0
30	0.9984878302	-0.00741992658	-0.150611341	-6.458931239e-07	12.60522842	-8.201818247e-08	1.0
[Bauch_001]
28	1.071342349	0.006600080058	-0.1893585622	-1.568805601e-07	2.360082865	-2.503413654e-08	1.0
29	1.071342349	0.006600080058	-0.1893585622	-1.568805601e-07	2.360082865	-2.503413654e-08	1.0
30	1.071342349	0.006600080058	-0.1893585622	-1.568805601e-07	2.360082865	-2.503413654e-08	1.0
[Brust]
28	1.41907382	-0.01381989196	0.3623858392	3.618613846e-06	10.7627573	-4.096809789e-05	1.0
29	1.41907382	-0.01381989196	0.3623858392	3.618613846e-06	10.7627573	-4.096809789e-05	1.0
30	1.41907382	-0.01381989196	0.3623858392	3.618613846e-06	10.7627573	-4.096809789e-05	1.0
[Hals]
28	1.1844244	-0.01484991144	1.02827692	-4.51789947e-06	46.87745285	-2.16624926e-06	1.0
29	1.1844244	-0.01484991144	1.02827692	-4.51789947e-06	46.87745285	-2.16624926e-06	1.0
30	1.1844244	-0.01484991144	1.02827692	-4.51789947e-06	46.87745285	-2.16624926e-06	1.0
[Kopf_002]
28	1.75259161	3.012944944e-05	0.2651725411	0.006653842982	-165.1497192	0.002556535648	1.0
29	1.75259161	3.012944944e-05	0.2651725411	0.006653842982	-165.1497192	0.002556535648	1.0
30	1.75259161	3.012944944e-05	0.2651725411	0.006653842982	-165.1497192	0.002556535648	1.0
[Kopf]
28	1.015781879	8.032657206e-08	9.111317922e-08	0.06872025877	123.2280426	-0.02605217695	1.0
29	1.015781879	8.032657206e-08	9.111317922e-08	0.06872025877	123.2280426	-0.02605217695	1.0
30	1.015781879	8.032657206e-08	9.111317922e-08	0.06872025877	123.2280426	-0.02605217695	1.0
[Unterkiefer]
28	0.6370437145	0.004552738741	0.4060620368	5.412721157	-68.3888092	-3.09354353	1.0
29	0.6370437145	0.004552738741	0.4060620368	5.412721157	-68.3888092	-3.09354353	1.0
30	0.6370437145	0.004552738741	0.4060620368	5.412721157	-68.3888092	-3.09354353	1.0
[Hals_fett]
28	0.2998299599	0.007747137919	0.1206380203	-5.071650982	-59.35961533	5.585566998	1.0
29	0.2998299599	0.007747137919	0.1206380203	-5.071650982	-59.35961533	5.585566998	1.0
30	0.2998299599	0.007747137919	0.1206380203	-5.071650982	-59.35961533	5.585566998	1.0
[Maulunten]
28	0.08317943662	-0.007747350261	-0.1206459776	-3.32220912	38.97271347	-0.871876061	1.0
29	0.08317943662	-0.007747350261	-0.1206459776	-3.32220912	38.97271347	-0.871876061	1.0
30	0.08317943662	-0.007747350261	-0.1206459776	-3.32220912	38.97271347	-0.871876061	1.0
[Mauloben]
28	0.910148263	0.0004056794569	0.4003701806	-0.1032674983	-28.77768707	0.03543139994	1.0
29	0.910148263	0.0004056794569	0.4003701806	-0.1032674983	-28.77768707	0.03543139994	1.0
30	0.910148263	0.0004056794569	0.4003701806	-0.1032674983	-28.77768707	0.03543139994	1.0
[MundW_L]
28	0.673060894	-0.3618556261	0.3751286268	-179.8370972	-17.94884872	24.71397209	1.0
29	0.673060894	-0.3618556261	0.3751286268	-179.8370972	-17.94884872	24.71397209	1.0
30	0.673060894	-0.3618556261	0.3751286268	-179.8370972	-17.94884872	24.71397209	1.0
[MundW_R]
28	0.6732318401	0.3627035022	0.37398085	179.6653442	-18.02427101	-24.69083977	1.0
29	0.6732318401	0.3627035022	0.37398085	179.6653442	-18.02427101	-24.69083977	1.0
30	0.6732318401	0.3627035022	0.37398085	179.6653442	-18.02427101	-24.69083977	1.0
[Augen_con]
28	1.807372689	-0.0001604028512	0.1835819334	0.09822253883	157.1545258	0.02385936864	1.0
29	1.807372689	-0.0001604028512	0.1835819334	0.09822253883	157.1545258	0.02385936864	1.0
30	1.807372689	-0.0001604028512	0.1835819334	0.09822253883	157.1545258	0.02385936864	1.0
[IK_Aug_R]
28	0.3461304307	0.2943200469	-8.032657206e-08	-0.4194762409	-4.963055134	165.6946411	1.0
29	0.3461304307	0.2943200469	-8.032657206e-08	-0.4194762409	-4.963055134	165.6946411	1.0
30	0.3461304307	0.2943200469	-8.032657206e-08	-0.4194762409	-4.963055134	165.6946411	1.0
[IK_Aug_L]
28	0.3461307883	-0.2943199575	-1.629814861e-08	0.4194769561	-4.963055134	-165.6946411	1.0
29	0.3461307883	-0.2943199575	-1.629814861e-08	0.4194769561	-4.963055134	-165.6946411	1.0
30	0.3461307883	-0.2943199575	-1.629814861e-08	0.4194769561	-4.963055134	-165.6946411	1.0
[Aug_R]
28	1.0351547	0.2207805812	-0.09605748951	176.004776	-17.29163933	12.85548019	1.0
29	1.0351547	0.2207805812	-0.09605748951	176.004776	-17.29163933	12.85548019	1.0
30	1.0351547	0.2207805812	-0.09605748951	176.004776	-17.29163933	12.85548019	1.0
[aug_L]
28	1.035044074	-0.2215988934	-0.09535883367	-176.1891022	-17.33178139	-12.83103275	1.0
29	1.035044074	-0.2215988934	-0.09535883367	-176.1891022	-17.33178139	-12.83103275	1.0
30	1.035044074	-0.2215988934	-0.09535883367	-176.1891022	-17.33178139	-12.83103275	1.0
[Ohr_L]
28	0.6407760978	-0.3659991622	-0.6893320084	-24.34924507	53.07766342	-15.02013397	1.0
29	0.6407760978	-0.3659991622	-0.6893320084	-24.34924507	53.07766342	-15.02013397	1.0
30	0.6407760978	-0.3659991622	-0.6893320084	-24.34924507	53.07766342	-15.02013397	1.0
[Ohr_R]
28	0.6409583092	0.3634999394	-0.6904845238	24.05786133	53.12416077	14.75857162	1.0
29	0.6409583092	0.3634999394	-0.6904845238	24.05786133	53.12416077	14.75857162	1.0
30	0.6409583092	0.3634999394	-0.6904845238	24.05786133	53.12416077	14.75857162	1.0
[Braun_O_L]
28	0.9801794291	-0.3706048727	-0.3292538524	-143.3172302	-34.69635391	52.39493942	1.0
29	0.9801794291	-0.3706048727	-0.3292538524	-143.3172302	-34.69635391	52.39493942	1.0
30	0.9801794291	-0.3706048727	-0.3292538524	-143.3172302	-34.69635391	52.39493942	1.0
[Braun_O_R]
28	0.9803634882	0.3690741956	-0.3304223716	143.1826782	-34.83971786	-52.3467598	1.0
29	0.9803634882	0.3690741956	-0.3304223716	143.1826782	-34.83971786	-52.3467598	1.0
30	0.9803634882	0.3690741956	-0.3304223716	143.1826782	-34.83971786	-52.3467598	1.0
[aug_lied_O_L]
28	1.038881421	-0.3271433711	-0.1608108282	-175.8613434	-20.15596199	60.31666946	1.0
29	1.038881421	-0.3271433711	-0.1608108282	-175.8613434	-20.15596199	60.31666946	1.0
30	1.038881421	-0.3271433711	-0.1608108282	-175.8613434	-20.15596199	60.31666946	1.0
[aug_lied_O_R]
28	1.039044261	0.3261157274	-0.1618429124	175.7657928	-20.31323814	-60.31218338	1.0
29	1.039044261	0.3261157274	-0.1618429124	175.7657928	-20.31323814	-60.31218338	1.0
30	1.039044261	0.3261157274	-0.1618429124	175.7657928	-20.31323814	-60.31218338	1.0
[aug_lied_U_L]
28	1.021915555	-0.3312865496	-0.1338484734	-159.8099365	-28.7482872	60.17461395	1.0
29	1.021915555	-0.3312865496	-0.1338484734	-159.8099365	-28.7482872	60.17461395	1.0
30	1.021915555	-0.3312865496	-0.1338484734	-159.8099365	-28.7482872	60.17461395	1.0
[aug_lied_U_R]
28	1.02207756	0.3303526342	-0.1348843277	159.7071381	-28.90532684	-60.15359116	1.0
29	1.02207756	0.3303526342	-0.1348843277	159.7071381	-28.90532684	-60.15359116	1.0
30	1.02207756	0.3303526342	-0.1348843277	159.7071381	-28.90532684	-60.15359116	1.0
[Bauch_003]
28	1.444672227	0.03385011479	-1.56629622	-3.870021374e-06	-137.6799469	1.039222207e-05	1.0
29	1.444672227	0.03385011479	-1.56629622	-3.870021374e-06	-137.6799469	1.039222207e-05	1.0
30	1.444672227	0.03385011479	-1.56629622	-3.870021374e-06	-137.6799469	1.039222207e-05	1.0
[Schalterplatte_L]
28	1.107183337	-0.4056739509	0.1750232875	-16.20205688	71.73935699	-45.89023209	1.0
29	1.086124301	-0.4036906064	0.1619217992	-19.21549797	72.48259735	-49.10904312	1.0
30	1.058518767	-0.4007719457	0.1443548203	-24.12708855	73.53455353	-54.27230072	1.0
[Oberarm_L]
28	1.418636918	9.313225746e-08	1.303851604e-07	-102.4647141	-64.62947845	121.2976913	1.0
29	1.418636918	9.313225746e-08	1.303851604e-07	-108.1936798	-63.55112076	128.1707764	1.0
30	1.418636918	9.313225746e-08	1.303851604e-07	-114.5739136	-61.88640213	135.9350739	1.0
[Unterarm_L]
28	2.028227806	1.885928214e-07	1.862644972e-08	9.294430733	62.79507065	9.669016838	1.0
29	2.028227806	1.885928214e-07	1.862644972e-08	11.4660387	65.42288971	11.76610565	1.0
30	2.028227806	1.885928214e-07	1.862644972e-08	14.53210354	68.38625336	14.76530647	1.0
[Vorderpfote_L]
28	1.705947399	2.607703209e-07	2.305023372e-07	-49.5621109	90.94713593	-48.07391739	1.0
29	1.705947399	2.607703209e-07	2.305023372e-07	-60.66941071	84.37317657	-58.4764328	1.0
30	1.705947399	2.607703209e-07	2.305023372e-07	-25.28656769	75.4671402	-22.04703522	1.0
[Schalterplatte_R]
28	0.9834520817	0.3826832175	-0.115012534	75.42797852	80.42774963	105.1982651	1.0
29	0.976267755	0.3827248216	-0.1077442318	69.36906433	80.48865509	98.98659515	1.0
30	0.9666797519	0.3827663958	-0.09783193469	61.93041611	80.42823029	91.44745636	1.0
[Oberarm_R]
28	1.418636441	2.235174179e-07	1.490116119e-07	69.0291748	-59.97647095	-82.94728851	1.0
29	1.418636441	2.235174179e-07	1.490116119e-07	68.9414978	-59.89117432	-82.9003067	1.0
30	1.418636441	2.235174179e-07	1.490116119e-07	69.54212952	-59.91534424	-83.68031311	1.0
[Unterarm_R]
28	2.028232098	1.350417733e-07	-7.450580597e-08	-6.352389812	70.2702713	-6.514892101	1.0
29	2.028232098	1.350417733e-07	-7.450580597e-08	-6.076757908	69.14230347	-6.207602978	1.0
30	2.028232098	1.350417733e-07	-7.450580597e-08	-5.937047482	68.05441284	-6.05614996	1.0
[Vorderpfote_R]
28	1.705937624	9.313230187e-09	7.101335342e-08	0.7407532334	77.56677246	0.1489623934	1.0
29	1.705937624	9.313230187e-09	7.101335342e-08	1.075700283	81.98600769	0.55514884	1.0
30	1.705937624	9.313230187e-09	7.101335342e-08	2.275777102	85.85190582	1.814481854	1.0
[Schwanz]
28	-0.1660729796	-1.338776023e-08	0.1023170277	0.189460516	-125.7093658	-0.6105857491	1.0
29	-0.1588033438	-1.338776023e-08	0.09824314713	0.1762872189	-125.2752762	-0.5579179525	1.0
30	-0.1491569877	-1.338776023e-08	0.09293102473	0.1578268409	-124.7038422	-0.4875908494	1.0
[Schwanz_001]
28	0.9104326963	6.926712359e-08	1.564329999e-09	-0.5340327024	-12.71527767	0.4688437283	1.0
29	0.9104326963	6.926712359e-08	1.564329999e-09	-0.54701823	-12.21385956	0.4842410088	1.0
30	0.9104326963	6.926712359e-08	1.564329999e-09	-0.5639015436	-11.55374813	0.5043213367	1.0
[Schwanz_002]
28	0.7855662704	6.053597446e-08	1.369335223e-07	-0.03022800945	-11.96192169	0.02304084226	1.0
29	0.7855662704	6.053597446e-08	1.369335223e-07	-0.06415334344	-12.2440176	0.04897096753	1.0
30	0.7855662704	6.053597446e-08	1.369335223e-07	-0.1090320349	-12.61533451	0.08336678892	1.0
[Schwanz_003]
28	0.8350353241	6.286426668e-08	8.163624443e-08	-0.7296234965	-24.8440094	0.8214603066	1.0
29	0.8350353241	6.286426668e-08	8.163624443e-08	-0.5818193555	-21.45894241	0.6738122702	1.0
30	0.8350353241	6.286426668e-08	8.163624443e-08	-0.4018832147	-16.9741497	0.4940919876	1.0
[Oberschenkel_L]
28	0.5593784451	-0.5837000012	0.1172846183	10.15487957	-24.53408623	-2.711519957	1.0
29	0.5765351057	-0.5837000012	0.1152592525	10.25618267	-26.59462929	-2.942447424	1.0
30	0.5987977386	-0.5837000012	0.1112907678	10.41601849	-29.48721313	-3.280138254	1.0
[Unterschenkel_L]
28	1.686438918	1.174854418e-07	2.579045644e-09	-142.2651062	-68.12978363	150.2140808	1.0
29	1.686438918	1.170615747e-07	2.674565902e-09	-141.9831848	-68.21508789	150.0884705	1.0
30	1.686438918	1.166377075e-07	2.77008616e-09	-141.2922668	-68.50925446	149.5744629	1.0
[Pfote1_L]
28	1.190900326	1.458594454e-07	-1.266240588e-07	-0.5391819477	58.16242218	-9.756842613	1.0
29	1.190900326	1.464325692e-07	-1.251912494e-07	-0.766803503	59.19525146	-10.02274704	1.0
30	1.190900326	1.47005693e-07	-1.237584399e-07	-1.081605673	60.52449417	-10.38660908	1.0
[Pfote2_L]
28	0.9876255989	1.245823e-07	-6.791491103e-08	90.95417786	97.79918671	86.36499786	1.0
29	0.9876255989	1.228151802e-07	-6.629106508e-08	84.35500336	97.823349	79.59838867	1.0
30	0.9876255989	1.210480463e-07	-6.466721914e-08	75.84178162	97.95635223	70.88256073	1.0
[Oberschenkel_R]
28	0.4452022314	0.5837000608	0.1164446101	-21.10033989	-71.59254456	16.16650963	1.0
29	0.4465284646	0.5837000608	0.09852555394	-19.26039886	-69.18352509	14.21059418	1.0
30	0.448966682	0.5837000608	0.07535279542	-17.30449486	-65.93354797	12.09807205	1.0
[Unterschenkel_R]
28	1.686449051	1.11758709e-07	3.725289943e-08	-111.3290253	-106.122963	98.5067749	1.0
29	1.686449051	1.11758709e-07	3.725289943e-08	-100.6058578	-105.7326889	87.4310379	1.0
30	1.686449051	1.11758709e-07	3.725289943e-08	-86.74045563	-105.9598312	73.06208801	1.0
[Pfote1_R]
28	1.190900326	2.176966518e-07	1.11758709e-07	-2.179661512	32.30687714	6.065322876	1.0
29	1.190900326	2.176966518e-07	1.11758709e-07	-2.216488838	33.16966248	5.997524738	1.0
30	1.190900326	2.176966518e-07	1.11758709e-07	-2.268077612	34.32626343	5.904759407	1.0
[Pfote2_R]
28	0.9876256585	1.024454832e-07	-4.656610209e-09	-36.44421768	98.53417969	-27.53491783	1.0
29	0.9876256585	1.024454832e-07	-4.656610209e-09	-35.49046326	99.63967133	-26.32363319	1.0
30	0.9876256585	1.024454832e-07	-4.656610209e-09	-34.82241058	101.0366058	-25.29864502	1.0
[EndOfFile]
